<?xml version="1.0" standalone="no"?>
<!DOCTYPE svg PUBLIC "-//W3C//DTD SVG 20010904//EN"
 "http://www.w3.org/TR/2001/REC-SVG-20010904/DTD/svg10.dtd">
<svg version="1.0" xmlns="http://www.w3.org/2000/svg"
 width="700.000000pt" height="700.000000pt" viewBox="0 0 700.000000 700.000000"
 preserveAspectRatio="xMidYMid meet">
<metadata>
Created by potrace 1.11, written by Peter Selinger 2001-2013
</metadata>
<g transform="translate(0.000000,700.000000) scale(0.100000,-0.100000)"
fill="#000000" stroke="none">
<path d="M3325 5779 c-38 -4 -92 -10 -120 -13 -129 -14 -337 -67 -479 -123
-512 -200 -923 -578 -1158 -1063 -38 -80 -75 -156 -81 -169 -7 -14 -66 -57
-137 -102 -413 -258 -740 -527 -939 -774 -31 -38 -58 -72 -62 -75 -15 -14
-121 -183 -149 -240 -151 -301 -156 -592 -15 -833 136 -232 394 -399 760 -492
72 -18 148 -36 170 -39 22 -3 49 -8 60 -10 11 -2 45 -7 75 -11 30 -3 69 -8 85
-10 203 -26 583 -26 910 1 69 6 72 5 135 -35 161 -99 490 -234 621 -255 20 -3
42 -8 50 -10 32 -12 175 -33 279 -42 106 -9 207 -9 330 0 91 6 111 8 190 22
19 3 46 8 60 10 67 12 197 47 291 80 563 194 1042 633 1268 1164 49 115 49
114 109 150 245 145 558 368 707 505 325 298 501 538 585 795 35 108 44 164
45 280 0 107 -8 159 -35 240 -93 278 -329 479 -699 600 -121 40 -311 82 -421
96 -30 3 -68 8 -85 9 -221 26 -685 26 -937 -1 -42 -4 -55 0 -103 31 -246 157
-608 280 -910 310 -101 10 -318 12 -400 4z m2235 -863 c14 -3 50 -7 80 -10
338 -30 648 -162 727 -309 13 -23 18 -55 18 -112 0 -97 -32 -178 -118 -307
-94 -141 -279 -334 -432 -451 -5 -4 -21 -17 -35 -28 -27 -23 -119 -92 -135
-101 -6 -4 -11 35 -13 108 -2 63 -5 122 -7 132 -2 11 -6 43 -10 73 -21 178
-71 369 -140 538 -60 146 -174 350 -248 445 l-31 39 160 -6 c87 -4 170 -9 184
-11z m-4213 -1359 c8 -381 139 -790 358 -1116 l77 -114 -154 7 c-154 7 -206
11 -288 22 -25 4 -54 8 -65 9 -318 43 -586 171 -646 312 -88 205 162 578 624
927 48 36 89 66 90 66 1 0 3 -51 4 -113z"/>
</g>
</svg>
