<?xml version="1.0" encoding="utf-8"?>
<!-- Generator: Adobe Illustrator 24.0.2, SVG Export Plug-In . SVG Version: 6.00 Build 0)  -->
<svg version="1.1" id="圖層_1" xmlns="http://www.w3.org/2000/svg" xmlns:xlink="http://www.w3.org/1999/xlink" x="0px" y="0px"
	 viewBox="0 0 530 530" style="enable-background:new 0 0 530 530;" xml:space="preserve">
<style type="text/css">
	.st0{fill:#1F2020;}
	.st1{fill:#F3F3F3;}
	.st2{fill:#DABB4E;}
	.st3{fill:none;stroke:#DABB4E;stroke-width:2.0001;stroke-miterlimit:10.0004;}
	.st4{fill:none;stroke:#DABB4E;stroke-width:10;stroke-miterlimit:10;}
	.st5{fill:none;stroke:#1F2020;stroke-miterlimit:10;}
</style>
<polygon class="st0" points="159.7,481.9 159.7,461.9 128.1,461.9 128.1,439 35.8,439 35.8,461.9 17.6,461.9 17.6,484.9 57.9,484.9 
	57.9,504.9 191.8,504.9 191.8,481.9 "/>
<polygon class="st0" points="411.7,25.1 411.7,48.1 381.7,48.1 381.7,71 515.6,71 515.6,48.1 515.6,25.1 "/>
<path class="st1" d="M81.2,478.7c12.3-0.5,24.6,1.1,36.7-0.6c6.9-1,13.7-3.1,20.6-4.5c6.9-1.3,14.1-1.9,20.8,0.1v8.2h32.4v23H81.2
	V478.7z"/>
<path class="st1" d="M384.9,70.9c1.9-4.5,10-3.9,13.1-8c2.4,0,12.5-7.5,14.2-7.5c1.6,0,3.2-2,4.8-2.1c1.6,0,1.8-0.1,3.2-0.7
	c1.1,2.2,3.9,0.2,5.5,2.1c0.3,0.3,4.5-1.8,5-1.7c1,0.3,4.9-1.2,5.9-1.6c1.9-0.7,4.1,0.2,5.7,1.1c3.2,2,25.2,16.6,26.9,18.6
	L384.9,70.9z"/>
<path class="st2" d="M425.5,70.9c6.1-4.8,12.2-9.6,18.4-14.4c0.7-0.5,1.4-1.1,2.2-1.5c0.6-0.3,1.3-0.5,2-0.6
	c1.8-0.4,3.5-0.8,5.3-1.2c0.7-0.2,1.3-0.3,2-0.5c1.9-0.7,3.5-2.2,5.2-3.5c7.1-5.7,15.4-9.3,23.7-12.8c0.6-0.3,1.4-0.5,1.9,0
	c0.2,0.2,0.3,0.4,0.4,0.6c0.7,0.8,1.8,0.5,2.8,0.2c3-0.9,6.1-1,9.2-0.5c-0.1,2.2,1.6,3.9,3.1,5.4c0.4,0.4,0.8,0.8,1.2,1.2
	c0.4,0.4,0.8,0.8,1.2,1c0.3,0.2,0.7,0.3,1,0.6s0.6,0.7,0.8,1c2.5,4.4,5,8.8,7.5,13.2c0.7,1.2,1.4,2.4,1.7,3.8
	c0.5,1.7,0.4,3.4,0.3,5.2c0,1.2-0.2,2.7-1.3,3.2L425.5,70.9z"/>
<circle class="st0" cx="265" cy="255.1" r="163.6"/>
<ellipse transform="matrix(0.9512 -0.3087 0.3087 0.9512 -65.8009 94.2704)" class="st3" cx="265" cy="255.1" rx="250" ry="94.9"/>
<path class="st0" d="M102,241.1c7.1-83.9,77.4-149.7,163-149.7c48.4,0,91.9,21,121.9,54.5"/>
<path class="st4" d="M502.8,177.9c16.2,49.8-77.2,124.8-208.5,167.4S43.4,382.1,27.2,332.2C19.5,308.5,36.7,279,71,250"/>
<path class="st1" d="M258.8,116.5l6.8,1.6c1.1,0.3,1.1,1.8,0,2.1l-6.8,1.6c-0.4,0.1-0.7,0.4-0.8,0.8l-1.6,6.8
	c-0.3,1.1-1.8,1.1-2.1,0l-1.6-6.8c-0.1-0.4-0.4-0.7-0.8-0.8l-6.8-1.6c-1.1-0.3-1.1-1.8,0-2.1l6.8-1.6c0.4-0.1,0.7-0.4,0.8-0.8
	l1.6-6.8c0.3-1.1,1.8-1.1,2.1,0l1.6,6.8C258.1,116.1,258.4,116.4,258.8,116.5z"/>
<path class="st2" d="M277.8,92.8l5.5,1.3c0.9,0.2,0.9,1.5,0,1.7l-5.5,1.3c-0.3,0.1-0.6,0.3-0.6,0.6l-1.3,5.5c-0.2,0.9-1.5,0.9-1.7,0
	l-1.3-5.5c-0.1-0.3-0.3-0.6-0.6-0.6l-5.5-1.3c-0.9-0.2-0.9-1.5,0-1.7l5.5-1.3c0.3-0.1,0.6-0.3,0.6-0.6l1.3-5.5
	c0.2-0.9,1.5-0.9,1.7,0l1.3,5.5C277.2,92.5,277.4,92.8,277.8,92.8z"/>
<path class="st1" d="M310.9,104.8l8.8,2c1.4,0.3,1.4,2.4,0,2.7l-8.8,2c-0.5,0.1-0.9,0.5-1,1l-2,8.8c-0.3,1.4-2.4,1.4-2.7,0l-2-8.8
	c-0.1-0.5-0.5-0.9-1-1l-8.8-2c-1.4-0.3-1.4-2.4,0-2.7l8.8-2c0.5-0.1,0.9-0.5,1-1l2-8.8c0.3-1.4,2.4-1.4,2.7,0l2,8.8
	C310,104.2,310.4,104.6,310.9,104.8z"/>
<path class="st1" d="M363.5,295.2l6.8,1.6c1.1,0.3,1.1,1.8,0,2.1l-6.8,1.6c-0.4,0.1-0.7,0.4-0.8,0.8l-1.6,6.8
	c-0.3,1.1-1.8,1.1-2.1,0l-1.6-6.8c-0.1-0.4-0.4-0.7-0.8-0.8l-6.8-1.6c-1.1-0.3-1.1-1.8,0-2.1l6.8-1.6c0.4-0.1,0.7-0.4,0.8-0.8
	l1.6-6.8c0.3-1.1,1.8-1.1,2.1,0l1.6,6.8C362.8,294.8,363.1,295.1,363.5,295.2z"/>
<path class="st2" d="M342.2,103.9l4.3,1c0.7,0.2,0.7,1.2,0,1.3l-4.3,1c-0.3,0.1-0.4,0.3-0.5,0.5l-1,4.3c-0.2,0.7-1.2,0.7-1.3,0
	l-1-4.3c-0.1-0.3-0.3-0.4-0.5-0.5l-4.3-1c-0.7-0.2-0.7-1.2,0-1.3l4.3-1c0.3-0.1,0.4-0.3,0.5-0.5l1-4.3c0.2-0.7,1.2-0.7,1.3,0l1,4.3
	C341.7,103.6,341.9,103.8,342.2,103.9z"/>
<path class="st1" d="M224.2,379.1l4.3,1c0.7,0.2,0.7,1.2,0,1.3l-4.3,1c-0.3,0.1-0.4,0.3-0.5,0.5l-1,4.3c-0.2,0.7-1.2,0.7-1.3,0
	l-1-4.3c-0.1-0.3-0.3-0.4-0.5-0.5l-4.3-1c-0.7-0.2-0.7-1.2,0-1.3l4.3-1c0.3-0.1,0.4-0.3,0.5-0.5l1-4.3c0.2-0.7,1.2-0.7,1.3,0l1,4.3
	C223.8,378.9,223.9,379.1,224.2,379.1z"/>
<path class="st2" d="M285.8,130.1l4.3,1c0.7,0.2,0.7,1.2,0,1.3l-4.3,1c-0.3,0.1-0.4,0.3-0.5,0.5l-1,4.3c-0.2,0.7-1.2,0.7-1.3,0
	l-1-4.3c-0.1-0.3-0.3-0.4-0.5-0.5l-4.3-1c-0.7-0.2-0.7-1.2,0-1.3l4.3-1c0.3-0.1,0.4-0.3,0.5-0.5l1-4.3c0.2-0.7,1.2-0.7,1.3,0l1,4.3
	C285.4,129.9,285.6,130.1,285.8,130.1z"/>
<path class="st0" d="M155,393.1l4.3,1c0.7,0.2,0.7,1.2,0,1.3l-4.3,1c-0.3,0.1-0.4,0.3-0.5,0.5l-1,4.3c-0.2,0.7-1.2,0.7-1.3,0l-1-4.3
	c-0.1-0.3-0.3-0.4-0.5-0.5l-4.3-1c-0.7-0.2-0.7-1.2,0-1.3l4.3-1c0.3-0.1,0.4-0.3,0.5-0.5l1-4.3c0.2-0.7,1.2-0.7,1.3,0l1,4.3
	C154.6,392.9,154.7,393,155,393.1z"/>
<path class="st0" d="M120.4,356.1l4.3,1c0.7,0.2,0.7,1.2,0,1.3l-4.3,1c-0.3,0.1-0.4,0.3-0.5,0.5l-1,4.3c-0.2,0.7-1.2,0.7-1.3,0
	l-1-4.3c-0.1-0.3-0.3-0.4-0.5-0.5l-4.3-1c-0.7-0.2-0.7-1.2,0-1.3l4.3-1c0.3-0.1,0.4-0.3,0.5-0.5l1-4.3c0.2-0.7,1.2-0.7,1.3,0l1,4.3
	C119.9,355.8,120.1,356,120.4,356.1z"/>
<path class="st0" d="M444,301l4.3,1c0.7,0.2,0.7,1.2,0,1.3l-4.3,1c-0.3,0.1-0.4,0.3-0.5,0.5l-1,4.3c-0.2,0.7-1.2,0.7-1.3,0l-1-4.3
	c-0.1-0.3-0.3-0.4-0.5-0.5l-4.3-1c-0.7-0.2-0.7-1.2,0-1.3l4.3-1c0.3-0.1,0.4-0.3,0.5-0.5l1-4.3c0.2-0.7,1.2-0.7,1.3,0l1,4.3
	C443.6,300.7,443.8,300.9,444,301z"/>
<path class="st0" d="M439.5,256.4l4.3,1c0.7,0.2,0.7,1.2,0,1.3l-4.3,1c-0.3,0.1-0.4,0.3-0.5,0.5l-1,4.3c-0.2,0.7-1.2,0.7-1.3,0
	l-1-4.3c-0.1-0.3-0.3-0.4-0.5-0.5l-4.3-1c-0.7-0.2-0.7-1.2,0-1.3l4.3-1c0.3-0.1,0.4-0.3,0.5-0.5l1-4.3c0.2-0.7,1.2-0.7,1.3,0l1,4.3
	C439.1,256.2,439.3,256.4,439.5,256.4z"/>
<path class="st0" d="M328.2,82.8l4.3,1c0.7,0.2,0.7,1.2,0,1.3l-4.3,1c-0.3,0.1-0.4,0.3-0.5,0.5l-1,4.3c-0.2,0.7-1.2,0.7-1.3,0
	l-1-4.3c-0.1-0.3-0.3-0.4-0.5-0.5l-4.3-1c-0.7-0.2-0.7-1.2,0-1.3l4.3-1c0.3-0.1,0.4-0.3,0.5-0.5l1-4.3c0.2-0.7,1.2-0.7,1.3,0l1,4.3
	C327.7,82.5,327.9,82.7,328.2,82.8z"/>
<path class="st2" d="M419.5,316.3l4.3,1c0.7,0.2,0.7,1.2,0,1.3l-4.3,1c-0.3,0.1-0.4,0.3-0.5,0.5l-1,4.3c-0.2,0.7-1.2,0.7-1.3,0
	l-1-4.3c-0.1-0.3-0.3-0.4-0.5-0.5l-4.3-1c-0.7-0.2-0.7-1.2,0-1.3l4.3-1c0.3-0.1,0.4-0.3,0.5-0.5l1-4.3c0.2-0.7,1.2-0.7,1.3,0l1,4.3
	C419,316.1,419.2,316.2,419.5,316.3z"/>
<path class="st2" d="M172.5,386.1l4.3,1c0.7,0.2,0.7,1.2,0,1.3l-4.3,1c-0.3,0.1-0.4,0.3-0.5,0.5l-1,4.3c-0.2,0.7-1.2,0.7-1.3,0
	l-1-4.3c-0.1-0.3-0.3-0.4-0.5-0.5l-4.3-1c-0.7-0.2-0.7-1.2,0-1.3l4.3-1c0.3-0.1,0.4-0.3,0.5-0.5l1-4.3c0.2-0.7,1.2-0.7,1.3,0l1,4.3
	C172.1,385.9,172.3,386.1,172.5,386.1z"/>
<path class="st1" d="M394.4,294l4.3,1c0.7,0.2,0.7,1.2,0,1.3l-4.3,1c-0.3,0.1-0.4,0.3-0.5,0.5l-1,4.3c-0.2,0.7-1.2,0.7-1.3,0l-1-4.3
	c-0.1-0.3-0.3-0.4-0.5-0.5l-4.3-1c-0.7-0.2-0.7-1.2,0-1.3l4.3-1c0.3-0.1,0.4-0.3,0.5-0.5l1-4.3c0.2-0.7,1.2-0.7,1.3,0l1,4.3
	C394,293.7,394.2,293.9,394.4,294z"/>
<path class="st2" d="M191.6,483.1c-8,1.8-16.1,3.5-24.2,2.9c-4.3-0.3-8.4-1.3-12.6-2.1c-9-1.7-18.2-2.5-27.3-2.4
	c-11.5,0.1-23.2,1.6-34.4-1.1c-9.8-2.4-18.6-7.9-28.2-11c-13-4.2-27-3.9-40.2-7h-7v22.5H58v20h133.8L191.6,483.1z"/>
<polygon class="st5" points="411.7,25.1 411.7,48.1 381.7,48.1 381.7,71 515.6,71 515.6,48.1 515.6,25.1 "/>
<polygon class="st5" points="159.7,481.9 159.7,461.9 128.1,461.9 128.1,439 35.8,439 35.8,461.9 17.6,461.9 17.6,484.9 57.9,484.9 
	57.9,504.9 191.8,504.9 191.8,481.9 "/>
</svg>
