<?xml version="1.0" encoding="utf-8"?>
<!-- Generator: Adobe Illustrator 25.2.0, SVG Export Plug-In . SVG Version: 6.00 Build 0)  -->
<svg version="1.1" id="圖層_1" xmlns="http://www.w3.org/2000/svg" xmlns:xlink="http://www.w3.org/1999/xlink" x="0px" y="0px"
	 viewBox="0 0 530 530" style="enable-background:new 0 0 530 530;" xml:space="preserve">
<style type="text/css">
	.st0{fill:#1F2020;}
	.st1{fill:#F3F3F3;}
	.st2{fill:#DABB4E;}
	.st3{fill:none;stroke:#1F2020;stroke-miterlimit:10;}
</style>
<polygon class="st0" points="159.7,481.9 159.7,461.9 128.1,461.9 128.1,439 35.8,439 35.8,461.9 17.6,461.9 17.6,484.9 57.9,484.9 
	57.9,504.9 191.8,504.9 191.8,481.9 "/>
<path class="st1" d="M81.2,478.7c12.3-0.5,24.6,1.1,36.7-0.6c6.9-1,13.7-3.1,20.6-4.5c6.9-1.3,14.1-1.9,20.8,0.1v8.2h32.4v23H81.2
	V478.7z"/>
<path class="st2" d="M191.6,483.1c-8,1.8-16.1,3.5-24.2,2.9c-4.3-0.3-8.4-1.3-12.6-2.1c-9-1.7-18.2-2.5-27.3-2.4
	c-11.5,0.1-23.2,1.6-34.4-1.1c-9.8-2.4-18.6-7.9-28.2-11c-13-4.2-27-3.9-40.2-7h-7v22.5H58v20h133.8L191.6,483.1z"/>
<polygon class="st3" points="159.7,481.9 159.7,461.9 128.1,461.9 128.1,439 35.8,439 35.8,461.9 17.6,461.9 17.6,484.9 57.9,484.9 
	57.9,504.9 191.8,504.9 191.8,481.9 "/>
</svg>
