<?xml version="1.0" encoding="utf-8"?>
<!-- Generator: Adobe Illustrator 25.2.0, SVG Export Plug-In . SVG Version: 6.00 Build 0)  -->
<svg version="1.1" id="圖層_1" xmlns="http://www.w3.org/2000/svg" xmlns:xlink="http://www.w3.org/1999/xlink" x="0px" y="0px"
	 viewBox="0 0 530 530" style="enable-background:new 0 0 530 530;" xml:space="preserve">
<style type="text/css">
	.st0{fill:#1F2020;}
	.st1{fill:#F3F3F3;}
	.st2{fill:#DABB4E;}
	.st3{fill:none;stroke:#1F2020;stroke-miterlimit:10;}
</style>
<polygon class="st0" points="411.7,25.1 411.7,48.1 381.7,48.1 381.7,71 515.6,71 515.6,48.1 515.6,25.1 "/>
<path class="st1" d="M384.9,70.9c1.9-4.5,10-3.9,13.1-8c2.4,0,12.5-7.5,14.2-7.5c1.6,0,3.2-2,4.8-2.1c1.6,0,1.8-0.1,3.2-0.7
	c1.1,2.2,3.9,0.2,5.5,2.1c0.3,0.3,4.5-1.8,5-1.7c1,0.3,4.9-1.2,5.9-1.6c1.9-0.7,4.1,0.2,5.7,1.1c3.2,2,25.2,16.6,26.9,18.6
	L384.9,70.9z"/>
<path class="st2" d="M425.5,70.9c6.1-4.8,12.2-9.6,18.4-14.4c0.7-0.5,1.4-1.1,2.2-1.5c0.6-0.3,1.3-0.5,2-0.6
	c1.8-0.4,3.5-0.8,5.3-1.2c0.7-0.2,1.3-0.3,2-0.5c1.9-0.7,3.5-2.2,5.2-3.5c7.1-5.7,15.4-9.3,23.7-12.8c0.6-0.3,1.4-0.5,1.9,0
	c0.2,0.2,0.3,0.4,0.4,0.6c0.7,0.8,1.8,0.5,2.8,0.2c3-0.9,6.1-1,9.2-0.5c-0.1,2.2,1.6,3.9,3.1,5.4c0.4,0.4,0.8,0.8,1.2,1.2
	c0.4,0.4,0.8,0.8,1.2,1c0.3,0.2,0.7,0.3,1,0.6s0.6,0.7,0.8,1c2.5,4.4,5,8.8,7.5,13.2c0.7,1.2,1.4,2.4,1.7,3.8
	c0.5,1.7,0.4,3.4,0.3,5.2c0,1.2-0.2,2.7-1.3,3.2L425.5,70.9z"/>
<polygon class="st3" points="411.7,25.1 411.7,48.1 381.7,48.1 381.7,71 515.6,71 515.6,48.1 515.6,25.1 "/>
</svg>
