<?xml version="1.0" encoding="utf-8"?>
<!-- Generator: Adobe Illustrator 24.0.2, SVG Export Plug-In . SVG Version: 6.00 Build 0)  -->
<svg version="1.1" id="圖層_1" xmlns="http://www.w3.org/2000/svg" xmlns:xlink="http://www.w3.org/1999/xlink" x="0px" y="0px"
	 viewBox="0 0 48 48" style="enable-background:new 0 0 48 48;" xml:space="preserve">
<g>
	<path d="M35.18,21.33c-0.78,0-1.43,0.14-1.95,0.42c-0.51,0.28-0.92,0.62-1.24,1.03c-0.32,0.41-0.53,0.85-0.66,1.31
		c-0.12,0.46-0.2,0.87-0.22,1.23h7.96c-0.12-1.31-0.54-2.27-1.13-2.95C37.36,21.69,36.38,21.33,35.18,21.33z"/>
	<path d="M17.28,20.56c0.62-0.48,0.92-1.26,0.92-2.34c0-0.6-0.1-1.09-0.3-1.48c-0.21-0.38-0.49-0.69-0.83-0.9
		c-0.35-0.22-0.74-0.37-1.19-0.45c-0.45-0.09-0.91-0.13-1.39-0.13H9.42v6.02h5.48C15.86,21.28,16.65,21.05,17.28,20.56z"/>
	<path d="M15.31,25.16H9.42v7.1h5.78c0.53,0,1.04-0.05,1.52-0.16c0.48-0.11,0.91-0.29,1.28-0.55c0.36-0.25,0.66-0.59,0.88-1.03
		c0.22-0.43,0.32-0.99,0.32-1.67c0-1.33-0.36-2.27-1.07-2.84C17.42,25.44,16.47,25.16,15.31,25.16z"/>
	<path d="M41,0H7C3.13,0,0,3.13,0,7v34c0,3.87,3.13,7,7,7h34c3.87,0,7-3.13,7-7V7C48,3.13,44.87,0,41,0z M30.11,12.6h9.97v2.54
		h-9.97V12.6z M23.89,32.54c-0.48,0.96-1.14,1.73-1.95,2.33c-0.82,0.6-1.75,1.05-2.8,1.34c-1.04,0.29-2.11,0.43-3.22,0.43H4V10.88
		h11.6c1.18,0,2.24,0.11,3.21,0.33c0.97,0.21,1.79,0.57,2.48,1.06c0.69,0.49,1.22,1.14,1.61,1.97c0.37,0.81,0.56,1.82,0.56,3.02
		c0,1.3-0.28,2.38-0.84,3.25c-0.57,0.86-1.4,1.57-2.51,2.12c1.51,0.46,2.64,1.26,3.38,2.4c0.75,1.15,1.11,2.52,1.11,4.14
		C24.6,30.47,24.36,31.59,23.89,32.54z M43.97,28.55H31.11c0,1.47,0.48,2.87,1.21,3.62c0.73,0.75,1.79,1.13,3.17,1.13
		c0.99,0,1.84-0.26,2.55-0.78c0.71-0.52,1.14-1.08,1.31-1.65h4.31c-0.69,2.25-1.74,3.85-3.18,4.81c-1.42,0.97-3.14,1.45-5.16,1.45
		c-1.4,0-2.67-0.24-3.8-0.71c-1.13-0.47-2.08-1.14-2.88-2.01c-0.78-0.87-1.38-1.9-1.81-3.11c-0.43-1.2-0.64-2.53-0.64-3.98
		c0-1.4,0.22-2.7,0.66-3.9c0.44-1.21,1.06-2.25,1.87-3.13c0.81-0.88,1.77-1.57,2.89-2.08c1.12-0.5,2.35-0.76,3.72-0.76
		c1.51,0,2.83,0.3,3.96,0.92c1.13,0.61,2.05,1.44,2.78,2.47c0.72,1.03,1.24,2.21,1.57,3.54C43.95,25.72,44.06,27.1,43.97,28.55z"/>
</g>
</svg>
