<?xml version="1.0" encoding="utf-8"?>
<!-- Generator: Adobe Illustrator 24.0.2, SVG Export Plug-In . SVG Version: 6.00 Build 0)  -->
<svg version="1.1" id="圖層_1" xmlns="http://www.w3.org/2000/svg" xmlns:xlink="http://www.w3.org/1999/xlink" x="0px" y="0px"
	 viewBox="0 0 48 48" style="enable-background:new 0 0 48 48;" xml:space="preserve">
<g>
	<path d="M25,24.1c0.2-0.1,0.4-0.1,0.6-0.2c-0.4-0.8-0.8-1.7-1.2-2.5c-4.9,1.4-9.9,2.1-15,2.1c0,0.2,0,0.3,0,0.5
		c0,3.6,1.3,7.1,3.8,9.8l0,0C13.5,33.2,17.5,26.6,25,24.1z"/>
	<path d="M26.5,26.4C18.3,29.3,15.3,35,15,35.6c4.2,3.3,9.8,4,14.7,1.9v0C29,33.7,28,30,26.5,26.4L26.5,26.4z"/>
	<path d="M17.8,10.8c-4.2,2-7.1,5.7-8.1,10.2c4.6,0,9.1-0.6,13.5-1.8C21.6,16.3,19.8,13.5,17.8,10.8z"/>
	<path d="M26,18.4c5.2-1.9,7.4-4.9,7.6-5.3C31,10.7,27.6,9.4,24,9.4c-1.2,0-2.3,0.1-3.4,0.4h0C22.6,12.5,24.4,15.4,26,18.4z"/>
	<path d="M42.8,0H5.1C2.3,0,0,2.3,0,5.1v37.8c0,2.8,2.3,5.1,5.1,5h37.8c2.8,0,5.1-2.3,5.1-5.1V5.1C48,2.3,45.7,0,42.8,0z M24,41.1
		c-9.4,0-17.1-7.7-17.1-17.1S14.6,6.9,24,6.9S41.1,14.6,41.1,24C41.1,33.4,33.4,41.1,24,41.1z"/>
	<path d="M35.3,14.8c-0.3,0.4-2.8,3.6-8.2,5.8c0.3,0.7,0.7,1.4,1,2.1c0.1,0.3,0.2,0.5,0.3,0.8c3.4-0.3,6.8-0.2,10.2,0.5
		C38.6,20.6,37.4,17.4,35.3,14.8L35.3,14.8z"/>
	<path d="M29.3,25.7c1.2,3.4,2.2,6.9,2.8,10.4c3.4-2.3,5.6-5.8,6.3-9.8h0C35.4,25.5,32.3,25.3,29.3,25.7z"/>
</g>
</svg>
