<?xml version="1.0" encoding="utf-8"?>
<!-- Generator: Adobe Illustrator 24.0.2, SVG Export Plug-In . SVG Version: 6.00 Build 0)  -->
<svg version="1.1" id="圖層_1" xmlns="http://www.w3.org/2000/svg" xmlns:xlink="http://www.w3.org/1999/xlink" x="0px" y="0px"
	 viewBox="0 0 48 48" style="enable-background:new 0 0 48 48;" xml:space="preserve">
<style type="text/css">
	.st0{fill:#282755;}
	.st1{fill:#C7B6D8;}
</style>
<g>
	<path class="st0" d="M41,0H7C3.1,0,0,3.1,0,7v34c0,3.9,3.1,7,7,7h34c3.9,0,7-3.1,7-7V7C48,3.1,44.9,0,41,0z"/>
	<g>
		<path class="st1" d="M11.1,28.3l-1.7,6.2H3.7l7.3-24h7.1l7.5,24h-5.9L18,28.3H11.1z M17.2,24.3l-1.5-5.1c-0.4-1.4-0.8-3.2-1.2-4.6
			h-0.1c-0.4,1.4-0.7,3.2-1.1,4.6l-1.4,5.1H17.2z"/>
		<path class="st1" d="M32.3,27.5c0.2,2.2,2.4,3.3,4.9,3.3c1.8,0,3.3-0.2,4.8-0.7l0.7,3.7c-1.8,0.7-4,1.1-6.3,1.1
			c-5.9,0-9.3-3.4-9.3-8.9c0-4.4,2.8-9.3,8.8-9.3c5.7,0,7.8,4.4,7.8,8.7c0,0.9-0.1,1.7-0.2,2.1H32.3z M38.7,23.8
			c0-1.3-0.6-3.5-3-3.5c-2.3,0-3.2,2.1-3.4,3.5H38.7z"/>
	</g>
</g>
</svg>
