<?xml version="1.0" encoding="utf-8"?>
<!-- Generator: Adobe Illustrator 24.0.2, SVG Export Plug-In . SVG Version: 6.00 Build 0)  -->
<svg version="1.1" id="圖層_1" xmlns="http://www.w3.org/2000/svg" xmlns:xlink="http://www.w3.org/1999/xlink" x="0px" y="0px"
	 viewBox="0 0 48 48" style="enable-background:new 0 0 48 48;" xml:space="preserve">
<style type="text/css">
	.st0{fill:#2C2D36;}
	.st1{fill:#E84119;}
	.st2{fill:#7B56A1;}
	.st3{fill:#4AB574;}
	.st4{fill:#EB6559;}
	.st5{fill:#31B1E7;}
</style>
<g>
	<path class="st0" d="M41,0H7C3.1,0,0,3.1,0,7v34c0,3.9,3.1,7,7,7h34c3.9,0,7-3.1,7-7V7C48,3.1,44.9,0,41,0z"/>
	<g>
		<path class="st1" d="M24,18.2h-5.9c-3.2,0-5.8-2.6-5.8-5.8v0c0-3.2,2.6-5.8,5.8-5.8H24V18.2z"/>
		<path class="st2" d="M24,29.8h-5.9c-3.2,0-5.8-2.6-5.8-5.8v0c0-3.2,2.6-5.8,5.8-5.8H24V29.8z"/>
		<path class="st3" d="M18.2,41.3L18.2,41.3c-3.3,0-5.9-2.6-5.9-5.8v0c0-3.2,2.6-5.8,5.8-5.8H24v5.8C24,38.7,21.4,41.3,18.2,41.3z"
			/>
		<path class="st4" d="M24,6.7h5.9c3.2,0,5.8,2.6,5.8,5.8v0c0,3.2-2.6,5.8-5.8,5.8H24V6.7z"/>
		<path class="st5" d="M29.8,18.2L29.8,18.2c3.3,0,5.9,2.6,5.9,5.8v0c0,3.2-2.6,5.8-5.8,5.8h-0.1c-3.2,0-5.8-2.6-5.8-5.8v0
			C24,20.8,26.6,18.2,29.8,18.2z"/>
	</g>
</g>
</svg>
