<?xml version="1.0" encoding="utf-8"?>
<!-- Generator: Adobe Illustrator 24.0.2, SVG Export Plug-In . SVG Version: 6.00 Build 0)  -->
<svg version="1.1" id="圖層_1" xmlns="http://www.w3.org/2000/svg" xmlns:xlink="http://www.w3.org/1999/xlink" x="0px" y="0px"
	 viewBox="0 0 48 48" style="enable-background:new 0 0 48 48;" xml:space="preserve">
<path d="M41,0H7C3.1,0,0,3.1,0,7v34c0,3.9,3.1,7,7,7h34c3.9,0,7-3.1,7-7V7C48,3.1,44.9,0,41,0z M44,34.8c0,1.4-1.1,2.5-2.5,2.5h-35
	c-1.4,0-2.5-1.1-2.5-2.5V18.2l19.3,12.9c0.4,0.3,1,0.3,1.4,0L44,18.2V34.8z M44,15L24.7,27.9c-0.4,0.3-1,0.3-1.4,0L4,15v-1.8
	c0-1.4,1.1-2.5,2.5-2.5h35c1.4,0,2.5,1.1,2.5,2.5V15z"/>
</svg>
