<?xml version="1.0" encoding="utf-8"?>
<!-- Generator: Adobe Illustrator 24.0.2, SVG Export Plug-In . SVG Version: 6.00 Build 0)  -->
<svg version="1.1" id="圖層_1" xmlns="http://www.w3.org/2000/svg" xmlns:xlink="http://www.w3.org/1999/xlink" x="0px" y="0px"
	 viewBox="0 0 48 48" style="enable-background:new 0 0 48 48;" xml:space="preserve">
<style type="text/css">
	.st0{fill:#2D3137;}
	.st1{fill:#CAC76A;}
</style>
<g>
	<path class="st0" d="M41,0H7C3.1,0,0,3.1,0,7v34c0,3.9,3.1,7,7,7h34c3.9,0,7-3.1,7-7V7C48,3.1,44.9,0,41,0z"/>
	<g>
		<path class="st1" d="M14.9,11.6h5.4v15.2c0,6.8-3.3,9.2-8.5,9.2c-1.3,0-2.9-0.2-4-0.6L8.4,31c0.7,0.2,1.7,0.4,2.8,0.4
			c2.3,0,3.7-1,3.7-4.8V11.6z"/>
		<path class="st1" d="M25,30c1.4,0.8,3.7,1.5,6,1.5c2.5,0,3.8-1,3.8-2.6c0-1.5-1.1-2.3-4-3.4c-4-1.4-6.6-3.6-6.6-7.1
			c0-4.1,3.4-7.2,9.1-7.2c2.7,0,4.7,0.5,6.1,1.2l-1.2,4.4c-1-0.5-2.7-1.1-5-1.1c-2.4,0-3.5,1.1-3.5,2.3c0,1.5,1.3,2.2,4.4,3.4
			c4.3,1.6,6.2,3.8,6.2,7.2c0,4-3.1,7.5-9.7,7.5c-2.7,0-5.4-0.7-6.8-1.5L25,30z"/>
	</g>
</g>
</svg>
