<?xml version="1.0" encoding="utf-8"?>
<!-- Generator: Adobe Illustrator 24.0.2, SVG Export Plug-In . SVG Version: 6.00 Build 0)  -->
<svg version="1.1" id="圖層_1" xmlns="http://www.w3.org/2000/svg" xmlns:xlink="http://www.w3.org/1999/xlink" x="0px" y="0px"
	 viewBox="0 0 48 48" style="enable-background:new 0 0 48 48;" xml:space="preserve">
<path d="M41,0H7C3.13,0,0,3.13,0,7v34c0,3.87,3.13,7,7,7h34c3.87,0,7-3.13,7-7V7C48,3.13,44.87,0,41,0z M14.06,42H6.59V17.95h7.47
	V42z M10.33,14.67c-2.4,0-4.33-1.94-4.33-4.33S7.93,6,10.33,6c2.38,0,4.32,1.94,4.32,4.33S12.72,14.67,10.33,14.67z M42,42h-7.46
	V30.3c0-2.79-0.05-6.38-3.88-6.38c-3.88,0-4.47,3.04-4.47,6.18V42h-7.45V17.95h7.15v3.29h0.1c1-1.89,3.43-3.88,7.06-3.88
	c7.56,0,8.95,4.98,8.95,11.45V42z"/>
</svg>
