<?xml version="1.0" encoding="utf-8"?>
<!-- Generator: Adobe Illustrator 24.0.2, SVG Export Plug-In . SVG Version: 6.00 Build 0)  -->
<svg version="1.1" id="圖層_1" xmlns="http://www.w3.org/2000/svg" xmlns:xlink="http://www.w3.org/1999/xlink" x="0px" y="0px"
	 viewBox="0 0 48 48" style="enable-background:new 0 0 48 48;" xml:space="preserve">
<style type="text/css">
	.st0{fill:#14343E;}
	.st1{fill:#EBF6FB;}
</style>
<g>
	<path class="st0" d="M41,0H7C3.1,0,0,3.1,0,7v34c0,3.9,3.1,7,7,7h34c3.9,0,7-3.1,7-7V7C48,3.1,44.9,0,41,0z"/>
	<g>
		<path class="st1" d="M8.6,11.5c1.7-0.3,4-0.5,7.3-0.5c3.3,0,5.7,0.6,7.3,1.9c1.5,1.2,2.5,3.2,2.5,5.6c0,2.4-0.8,4.4-2.2,5.7
			c-1.9,1.7-4.6,2.5-7.8,2.5c-0.7,0-1.4,0-1.9-0.1v8.6H8.6V11.5z M13.9,22.4c0.5,0.1,1,0.1,1.8,0.1c2.9,0,4.7-1.5,4.7-3.9
			c0-2.2-1.5-3.5-4.2-3.5c-1.1,0-1.8,0.1-2.2,0.2V22.4z"/>
		<path class="st1" d="M28.3,30.5c1,0.6,3.1,1.3,4.6,1.3c1.6,0,2.3-0.6,2.3-1.4c0-0.9-0.6-1.3-2.6-2c-3.6-1.2-5-3.2-5-5.2
			c0-3.3,2.8-5.7,7.1-5.7c2,0,3.8,0.5,4.9,1l-0.9,3.7c-0.8-0.4-2.3-1-3.8-1c-1.3,0-2.1,0.5-2.1,1.4c0,0.8,0.7,1.3,2.8,2
			c3.3,1.1,4.7,2.8,4.7,5.4c0,3.3-2.5,5.7-7.5,5.7c-2.3,0-4.3-0.5-5.6-1.2L28.3,30.5z"/>
	</g>
</g>
</svg>
