<?xml version="1.0" encoding="utf-8"?>
<!-- Generator: Adobe Illustrator 24.0.2, SVG Export Plug-In . SVG Version: 6.00 Build 0)  -->
<svg version="1.1" id="圖層_1" xmlns="http://www.w3.org/2000/svg" xmlns:xlink="http://www.w3.org/1999/xlink" x="0px" y="0px"
	 viewBox="0 0 48 48" style="enable-background:new 0 0 48 48;" xml:space="preserve">
<style type="text/css">
	.st0{fill:#3B204B;}
	.st1{fill:#CAACD1;}
</style>
<g>
	<path class="st0" d="M41,0H7C3.1,0,0,3.1,0,7v34c0,3.9,3.1,7,7,7h34c3.9,0,7-3.1,7-7V7C48,3.1,44.9,0,41,0z"/>
	<g>
		<path class="st1" d="M9.2,11.2c1.7-0.3,4-0.5,7.3-0.5c3.3,0,5.7,0.6,7.3,1.9c1.5,1.2,2.5,3.2,2.5,5.6c0,2.4-0.8,4.4-2.2,5.7
			c-1.9,1.7-4.6,2.5-7.8,2.5c-0.7,0-1.4,0-1.9-0.1v8.6H9.2V11.2z M14.6,22.1c0.5,0.1,1,0.1,1.8,0.1c2.9,0,4.7-1.5,4.7-3.9
			c0-2.2-1.5-3.5-4.2-3.5c-1.1,0-1.8,0.1-2.2,0.2V22.1z"/>
		<path class="st1" d="M29.4,23.2c0-2.6,0-4.2-0.1-5.7h4.7l0.2,3.2h0.1c0.9-2.6,3-3.6,4.7-3.6c0.5,0,0.8,0,1.2,0.1v5.1
			c-0.4-0.1-0.9-0.2-1.5-0.2c-2,0-3.4,1.1-3.7,2.8c-0.1,0.3-0.1,0.8-0.1,1.2v8.8h-5.4V23.2z"/>
	</g>
</g>
</svg>
