<?xml version="1.0" encoding="utf-8"?>
<!-- Generator: Adobe Illustrator 24.0.2, SVG Export Plug-In . SVG Version: 6.00 Build 0)  -->
<svg version="1.1" id="圖層_1" xmlns="http://www.w3.org/2000/svg" xmlns:xlink="http://www.w3.org/1999/xlink" x="0px" y="0px"
	 viewBox="0 0 48 48" style="enable-background:new 0 0 48 48;" xml:space="preserve">
<path d="M9.7,21c1-4.5,4-8.3,8.1-10.3c0.4,0.5,3,4.2,5.4,8.5C16.3,21.1,10.3,21,9.7,21z M33.7,13.1c-3.6-3.2-8.5-4.4-13.1-3.3
	c0.4,0.5,3.1,4.2,5.5,8.6C31.2,16.4,33.4,13.4,33.7,13.1z M15,35.6c4.3,3.4,10,3.9,14.7,1.9c-0.2-1.3-1.1-5.8-3.1-11.1
	C20.7,28.4,16.5,32.4,15,35.6L15,35.6z M25.6,24c-0.4-0.8-0.8-1.7-1.2-2.5c-7.3,2.2-14.4,2.1-15,2.1c0,0.1,0,0.3,0,0.5
	c0,3.8,1.4,7.2,3.8,9.8C15.5,29.8,20.3,25.5,25.6,24L25.6,24z M29.3,25.7c1.9,5.3,2.7,9.5,2.8,10.4c3.3-2.2,5.6-5.7,6.3-9.8
	C38,26.2,33.9,25,29.3,25.7z M27.2,20.5c0.5,1,0.9,1.9,1.3,2.9c4.9-0.6,9.7,0.4,10.2,0.5c0-3.5-1.3-6.6-3.3-9.1
	C35,15.2,32.6,18.3,27.2,20.5z M48,5.1v37.7c0,2.8-2.3,5.1-5.1,5.1H5.1C2.3,48,0,45.7,0,42.9V5.1C0,2.3,2.3,0,5.1,0h37.7
	C45.7,0,48,2.3,48,5.1z M41.1,24c0-9.4-7.7-17.1-17.1-17.1S6.9,14.6,6.9,24S14.6,41.1,24,41.1S41.1,33.5,41.1,24z"/>
</svg>
