<?xml version="1.0" encoding="utf-8"?>
<!-- Generator: Adobe Illustrator 24.0.2, SVG Export Plug-In . SVG Version: 6.00 Build 0)  -->
<svg version="1.1" id="圖層_1" xmlns="http://www.w3.org/2000/svg" xmlns:xlink="http://www.w3.org/1999/xlink" x="0px" y="0px"
	 viewBox="0 0 48 48" style="enable-background:new 0 0 48 48;" xml:space="preserve">
<style type="text/css">
	.st0{fill:#2D3137;}
	.st1{fill:#D88D55;}
</style>
<g>
	<path class="st0" d="M41,0H7C3.1,0,0,3.1,0,7v34c0,3.9,3.1,7,7,7h34c3.9,0,7-3.1,7-7V7C48,3.1,44.9,0,41,0z"/>
	<g>
		<path class="st1" d="M4.8,22.4L22,14.4v3.8L9,23.9V24l13,5.7v3.8L4.8,25.5V22.4z"/>
		<path class="st1" d="M43.2,25.6l-17.1,7.8v-3.8L39.3,24v-0.1l-13.2-5.7v-3.8l17.1,7.8V25.6z"/>
	</g>
</g>
</svg>
