<?xml version="1.0" encoding="utf-8"?>
<!-- Generator: Adobe Illustrator 25.3.1, SVG Export Plug-In . SVG Version: 6.00 Build 0)  -->
<svg version="1.1" id="圖層_1" xmlns="http://www.w3.org/2000/svg" xmlns:xlink="http://www.w3.org/1999/xlink" x="0px" y="0px"
	 viewBox="0 0 48 48" style="enable-background:new 0 0 48 48;" xml:space="preserve">
<path d="M41,0H7C3.1,0,0,3.1,0,7v34c0,3.9,3.1,7,7,7h34c3.9,0,7-3.1,7-7V7C48,3.1,44.9,0,41,0z M23.2,37c0,3.2-2.6,5.8-5.8,5.8
	c-3.3,0-5.9-2.6-5.9-5.8s2.6-5.8,5.8-5.8h5.9V37z M23.2,29.8h-5.9c-3.2,0-5.8-2.6-5.8-5.8s2.6-5.8,5.8-5.8h5.9V29.8z M23.2,16.8
	h-5.9c-3.2,0-5.8-2.6-5.8-5.8s2.6-5.8,5.8-5.8h5.9V16.8z M30.7,29.8h-0.1c-3.2,0-5.8-2.6-5.8-5.8s2.6-5.8,5.8-5.8
	c3.3,0,5.9,2.6,5.9,5.8S33.8,29.8,30.7,29.8z M30.7,16.8h-5.9V5.2h5.9c3.2,0,5.8,2.6,5.8,5.8S33.8,16.8,30.7,16.8z"/>
</svg>
