<?xml version="1.0" encoding="utf-8"?>
<!-- Generator: Adobe Illustrator 24.0.2, SVG Export Plug-In . SVG Version: 6.00 Build 0)  -->
<svg version="1.1" id="圖層_1" xmlns="http://www.w3.org/2000/svg" xmlns:xlink="http://www.w3.org/1999/xlink" x="0px" y="0px"
	 viewBox="0 0 48 48" style="enable-background:new 0 0 48 48;" xml:space="preserve">
<style type="text/css">
	.st0{fill:#4E091F;}
	.st1{fill:#E61F5F;}
</style>
<g>
	<path class="st0" d="M41,0H7C3.1,0,0,3.1,0,7v34c0,3.9,3.1,7,7,7h34c3.9,0,7-3.1,7-7V7C48,3.1,44.9,0,41,0z"/>
	<g>
		<path class="st1" d="M16.3,11.5v24h-5.4v-24H16.3z"/>
		<path class="st1" d="M37.6,10.2v20.1c0,2,0.1,4,0.1,5.2H33l-0.2-2.6h-0.1c-1.1,2-3.2,2.9-5.5,2.9c-4.1,0-7.4-3.5-7.4-9
			c0-5.9,3.7-9.3,7.8-9.3c2.2,0,3.8,0.8,4.6,2h0.1v-9.4H37.6z M32.2,25.4c0-0.3,0-0.7-0.1-1c-0.3-1.5-1.5-2.6-3.1-2.6
			c-2.5,0-3.7,2.2-3.7,5c0,2.9,1.4,4.8,3.7,4.8c1.5,0,2.8-1.1,3.1-2.6c0.1-0.4,0.1-0.8,0.1-1.2V25.4z"/>
	</g>
</g>
</svg>
