<?xml version="1.0" encoding="utf-8"?>
<!-- Generator: Adobe Illustrator 24.0.2, SVG Export Plug-In . SVG Version: 6.00 Build 0)  -->
<svg version="1.1" id="圖層_1" xmlns="http://www.w3.org/2000/svg" xmlns:xlink="http://www.w3.org/1999/xlink" x="0px" y="0px"
	 viewBox="0 0 48 48" style="enable-background:new 0 0 48 48;" xml:space="preserve">
<style type="text/css">
	.st0{fill:#3A240E;}
	.st1{fill:#E09D59;}
</style>
<g>
	<path class="st0" d="M41,0H7C3.1,0,0,3.1,0,7v34c0,3.9,3.1,7,7,7h34c3.9,0,7-3.1,7-7V7C48,3.1,44.9,0,41,0z"/>
	<g>
		<path class="st1" d="M15,28.3l-1.7,6.2H7.7l7.3-24h7.1l7.5,24h-5.9L22,28.3H15z M21.1,24.2l-1.5-5.1c-0.4-1.4-0.8-3.2-1.2-4.6
			h-0.1c-0.4,1.4-0.7,3.2-1.1,4.6l-1.4,5.1H21.1z"/>
		<path class="st1" d="M38,12.2c0,1.5-1.1,2.7-2.9,2.7c-1.7,0-2.8-1.2-2.8-2.7c0-1.5,1.1-2.7,2.9-2.7C36.9,9.5,38,10.6,38,12.2z
			 M32.4,34.5V17h5.4v17.4H32.4z"/>
	</g>
</g>
</svg>
