<?xml version="1.0" encoding="utf-8"?>
<!-- Generator: Adobe Illustrator 24.0.2, SVG Export Plug-In . SVG Version: 6.00 Build 0)  -->
<svg version="1.1" id="圖層_2" xmlns="http://www.w3.org/2000/svg" xmlns:xlink="http://www.w3.org/1999/xlink" x="0px" y="0px"
	 viewBox="0 0 69.34 27.47" style="enable-background:new 0 0 69.34 27.47;" xml:space="preserve">
<style type="text/css">
	.st0{fill:#E2C14C;}
</style>
<g>
	<path class="st0" d="M14.4,1.28C11.19,2.62,8,4.11,5.21,6.15c-1.39,1.02-2.68,2.19-3.6,3.59c-0.43,0.71-0.78,1.48-0.81,2.27
		c-0.01,0.38,0.03,0.79,0.2,1.03c0.16,0.26,0.48,0.41,0.86,0.48c0.76,0.13,1.63-0.03,2.45-0.25c0.83-0.22,1.64-0.53,2.43-0.88
		c0.79-0.36,1.56-0.76,2.28-1.22c0.36-0.23,0.71-0.48,1-0.76c0.14-0.13,0.28-0.31,0.28-0.37c-0.02-0.03,0.04,0.12,0.08,0.11
		c0.01-0.01-0.1,0-0.17,0.02c-0.72,0.21-1.49,0.73-2.15,1.25c-0.67,0.54-1.3,1.13-1.88,1.77c-1.14,1.27-2.18,2.69-2.83,4.19
		c-0.31,0.76-0.53,1.58-0.57,2.37c-0.02,0.38,0.02,0.79,0.13,1c0,0.11,0.4,0.29,0.73,0.36c0.69,0.15,1.48-0.05,2.21-0.39
		c0.74-0.34,1.44-0.82,2.11-1.35c1.33-1.07,2.54-2.32,3.63-3.66c0.27-0.34,0.53-0.68,0.77-1.03c0.12-0.17,0.23-0.35,0.32-0.51
		l0.05-0.1c0,0,0.01-0.02,0,0.02c0,0.03-0.01,0.01,0.01,0.14c0.02,0.06,0.01,0.06,0.08,0.18c0.07,0.1,0.2,0.15,0.27,0.17
		c0.09,0.03,0.21,0.02,0.3-0.03c0.11-0.06,0.07-0.04,0.09-0.06c0.02-0.01,0.03-0.03,0.05-0.05c0,0-0.01,0.01-0.01,0.02l-0.06,0.11
		c-0.34,0.73-0.64,1.59-0.95,2.4l-0.92,2.49l-0.26,0.63c-0.05,0.11-0.09,0.21-0.16,0.33c-0.02,0.03-0.03,0.06-0.06,0.1
		c-0.03,0.03-0.03,0.08-0.2,0.2c-0.03-0.04,0.03,0.16-0.49-0.01c-0.25-0.13-0.19-0.56-0.18-0.48c0.02-0.07,0.04-0.11,0.04-0.12
		l0.06-0.11c0.26-0.42,0.52-0.76,0.79-1.13c1.08-1.42,2.24-2.77,3.52-4.01c0.65-0.62,1.33-1.2,2.1-1.7c0.39-0.24,0.8-0.47,1.28-0.59
		c0.24-0.06,0.49-0.09,0.76-0.06c0.14,0.02,0.25,0.04,0.41,0.11c0.18,0.07,0.3,0.24,0.36,0.38c0.21,0.58,0.1,1.03,0.03,1.49
		c-0.09,0.45-0.2,0.89-0.32,1.33c-0.25,0.87-0.53,1.71-0.81,2.58l0.01-0.49l0-0.01c-0.02-0.26-0.6-0.39-0.59-0.33
		c-0.06,0-0.12,0.02-0.17,0.05c-0.08,0.05-0.03,0.02-0.05,0.03c-0.01,0.01,0.03-0.02,0.04-0.03l0.15-0.15l0.31-0.34l0.64-0.71
		c0.42-0.48,0.86-0.96,1.32-1.42c0.46-0.46,0.93-0.91,1.48-1.31c0.56-0.37,1.15-0.83,2.11-0.71c0.26,0.05,0.53,0.24,0.66,0.46
		c0.14,0.22,0.19,0.43,0.22,0.63c0.06,0.39,0.03,0.73-0.01,1.07c-0.07,0.66-0.25,1.32-0.32,1.86c-0.01,0.05,0,0.14-0.01,0.07
		c-0.01-0.05-0.08-0.12-0.09-0.12c-0.03-0.01,0.1,0.02,0.21,0c0.25-0.02,0.54-0.1,0.82-0.19c0.57-0.18,1.14-0.43,1.7-0.69
		c1.11-0.54,2.2-1.16,3.19-1.88c0.48-0.36,0.98-0.76,1.27-1.16c0.07-0.09,0.11-0.2,0.11-0.22c0-0.01-0.01,0.02,0.01,0.05
		c0.01,0.02,0.01,0.03,0.02,0.04l-0.04-0.05c-0.14-0.14-0.28-0.19-0.47-0.2c-0.39,0-0.89,0.31-1.26,0.71
		c-0.38,0.4-0.67,0.91-0.86,1.44c-0.17,0.52-0.27,1.16-0.1,1.52c0.18,0.42,0.65,0.76,1.17,1c1.06,0.46,2.32,0.57,3.5,0.41
		c1.18-0.14,2.29-0.72,2.79-1.76c0.27-0.52,0.37-1.05,0.41-1.71c0.01-0.09,0.02-0.18,0.06-0.29c0.02-0.06,0.03-0.11,0.1-0.22
		c0.04-0.05,0.09-0.12,0.22-0.16c0.12-0.04,0.26-0.01,0.33,0.03c0.23,0.15,0.23,0.24,0.3,0.33c0.05,0.09,0.09,0.17,0.12,0.25
		c0.13,0.32,0.22,0.64,0.3,0.96c0.16,0.64,0.27,1.28,0.31,1.94c0.02,0.33,0.02,0.67-0.03,1.03c-0.03,0.18-0.07,0.37-0.17,0.57
		c-0.09,0.19-0.31,0.45-0.63,0.51c-0.16,0.03-0.27,0.02-0.43-0.01c-0.15-0.02-0.43-0.22-0.46-0.47c-0.04-0.43,0.1-0.56,0.18-0.74
		c0.19-0.33,0.4-0.58,0.61-0.84c0.43-0.5,0.89-0.95,1.37-1.39c0.95-0.87,1.95-1.69,3-2.44c0.53-0.37,1.08-0.72,1.67-1.03
		c0.29-0.16,0.59-0.31,0.92-0.44c0.34-0.12,0.66-0.26,1.19-0.24c0.13,0.01,0.3,0.05,0.46,0.13c0.17,0.09,0.33,0.25,0.42,0.42
		c0.2,0.44,0.09,0.67,0.07,0.88c-0.09,0.4-0.22,0.7-0.35,1.01l-0.8,1.73c-0.12,0.28-0.24,0.56-0.33,0.83
		c-0.1,0.24-0.12,0.58-0.11,0.54c0-0.02-0.05-0.08-0.09-0.1c-0.06-0.03-0.04-0.01-0.02-0.01c0.04,0.01,0.15,0,0.26-0.03
		c0.23-0.06,0.5-0.18,0.76-0.31c1.05-0.55,2.08-1.3,3.09-2.04c1.01-0.75,2-1.53,3.06-2.28c0.27-0.19,0.53-0.37,0.88-0.54
		c0.1-0.04,0.18-0.09,0.38-0.13c0.08,0,0.31-0.06,0.56,0.18c0.23,0.28,0.16,0.44,0.16,0.53l-0.06,0.48
		c-0.09,0.63-0.18,1.27-0.29,1.9c-0.44,2.52-1.02,5.02-1.98,7.43c-0.49,1.2-1.08,2.38-1.95,3.41c-0.43,0.52-1,0.96-1.59,1.29
		c-0.6,0.33-1.27,0.57-2,0.58c-0.71,0-1.54-0.24-2-0.96c-0.24-0.35-0.28-0.85-0.18-1.21c0.09-0.38,0.27-0.71,0.47-0.99
		c0.84-1.12,1.96-1.81,3.07-2.47c2.25-1.26,4.64-2.19,7.06-2.98c4.85-1.56,9.82-2.62,14.82-3.49l0.05,0.28
		c-4.96,0.99-9.9,2.16-14.66,3.82c-2.37,0.83-4.73,1.76-6.89,3.01c-1.05,0.64-2.12,1.35-2.79,2.28c-0.33,0.46-0.48,1-0.25,1.32
		c0.23,0.38,0.78,0.57,1.3,0.56c1.08-0.06,2.2-0.72,2.93-1.61c0.76-0.91,1.31-2.03,1.76-3.18c0.9-2.31,1.44-4.78,1.84-7.25
		c0.1-0.62,0.19-1.24,0.26-1.86l0.05-0.47c0.01,0.02-0.05,0.09,0.12,0.31c0.19,0.18,0.33,0.12,0.34,0.13
		c0.04-0.01-0.03,0.01-0.07,0.03c-0.22,0.11-0.48,0.29-0.73,0.47c-1,0.73-1.99,1.53-3.01,2.3c-1.02,0.77-2.04,1.54-3.22,2.18
		c-0.3,0.16-0.61,0.31-0.99,0.41c-0.19,0.05-0.4,0.09-0.68,0.07c-0.14-0.02-0.28-0.04-0.47-0.16c-0.18-0.1-0.32-0.3-0.38-0.46
		c-0.18-0.66,0-0.96,0.08-1.32c0.11-0.34,0.23-0.64,0.36-0.94l0.77-1.73c0.12-0.28,0.22-0.56,0.27-0.79
		c0.03-0.1-0.01-0.21,0.04-0.06c0.04,0.08,0.16,0.11,0.1,0.09c-0.11-0.02-0.4,0.05-0.65,0.15c-0.26,0.1-0.53,0.23-0.8,0.36
		c-0.53,0.28-1.06,0.6-1.57,0.95c-1.04,0.68-2.05,1.42-3,2.22c-0.47,0.4-0.94,0.82-1.36,1.25c-0.21,0.22-0.41,0.45-0.54,0.67
		c-0.07,0.09-0.1,0.26-0.1,0.14c-0.01-0.09-0.14-0.18-0.14-0.16l0.04,0.01c-0.01,0.05,0.14-0.14,0.18-0.41
		c0.05-0.26,0.05-0.56,0.04-0.86c-0.02-0.6-0.12-1.21-0.25-1.81c-0.07-0.3-0.15-0.59-0.25-0.86c-0.03-0.07-0.05-0.13-0.08-0.18
		c-0.01-0.05-0.09-0.1,0-0.04c0.03,0.02,0.13,0.04,0.22,0.01c0.09-0.03,0.11-0.07,0.13-0.09c0.02-0.04,0.01-0.02,0.01,0
		c-0.01,0.04-0.02,0.1-0.03,0.17c-0.02,0.6-0.14,1.35-0.47,1.96c-0.61,1.3-2.02,2.02-3.32,2.21c-1.31,0.21-2.68,0.14-3.97-0.38
		c-0.62-0.28-1.29-0.67-1.66-1.42c-0.18-0.37-0.21-0.84-0.18-1.16c0.03-0.35,0.1-0.7,0.2-1.04c0.21-0.67,0.56-1.29,1.03-1.82
		c0.48-0.51,1.08-1.02,1.98-1.08c0.45-0.02,0.94,0.18,1.24,0.5c0.04,0.04,0.07,0.07,0.12,0.13c0.06,0.07,0.11,0.15,0.14,0.24
		c0.07,0.18,0.07,0.37,0.05,0.52c-0.06,0.29-0.18,0.47-0.29,0.63c-0.46,0.62-0.99,1-1.52,1.39c-1.07,0.76-2.2,1.39-3.37,1.94
		c-0.59,0.27-1.19,0.52-1.83,0.72c-0.32,0.1-0.65,0.19-1.03,0.22c-0.2,0-0.41,0.03-0.72-0.11c-0.16-0.07-0.34-0.27-0.39-0.48
		c-0.05-0.23-0.02-0.3-0.01-0.41c0.11-0.71,0.27-1.27,0.34-1.88c0.04-0.29,0.06-0.59,0.02-0.82c-0.05-0.26-0.1-0.32-0.18-0.34
		c-0.33-0.06-0.92,0.23-1.36,0.58c-0.47,0.36-0.92,0.78-1.33,1.23c-0.42,0.45-0.82,0.93-1.21,1.42l-0.58,0.75l-0.31,0.38l-0.18,0.2
		c-0.05,0.04-0.06,0.07-0.13,0.13c-0.05,0.04-0.03,0.04-0.15,0.1c-0.07,0.04-0.15,0.06-0.22,0.07c-0.01,0.07-0.6-0.09-0.64-0.35
		l0-0.01l-0.13-0.27l0.13-0.22c0.45-0.73,0.83-1.52,1.15-2.32c0.16-0.4,0.3-0.81,0.4-1.22c0.09-0.39,0.16-0.85,0.07-1.11
		c-0.02-0.06-0.04-0.09-0.07-0.1c-0.03-0.02-0.15-0.05-0.22-0.06c-0.17-0.02-0.36,0-0.55,0.05c-0.38,0.1-0.75,0.3-1.11,0.52
		c-0.72,0.45-1.35,1.05-1.96,1.67c-1.21,1.24-2.3,2.62-3.31,4.04c-0.24,0.35-0.5,0.73-0.69,1.06l-0.02,0.04c0,0.01,0,0,0.01-0.05
		c0,0.09,0.06-0.32-0.18-0.44c-0.51-0.16-0.43,0.03-0.46-0.02c-0.12,0.09-0.09,0.08-0.09,0.07c0,0,0.01-0.02,0.02-0.04
		c0.04-0.07,0.08-0.17,0.12-0.26l0.23-0.6l0.87-2.48c0.3-0.84,0.56-1.65,0.95-2.52l0.1-0.18l0.08-0.12c0.03-0.04,0.07-0.07,0.1-0.11
		c0.03-0.02,0-0.02,0.13-0.08c0.1-0.05,0.23-0.06,0.34-0.04c0.09,0.01,0.22,0.09,0.3,0.19c0.09,0.13,0.08,0.15,0.1,0.22
		c0.03,0.15,0.01,0.17,0,0.22c-0.02,0.09-0.03,0.13-0.05,0.18c-0.03,0.08-0.06,0.14-0.09,0.2c-0.12,0.23-0.24,0.42-0.37,0.62
		c-0.25,0.38-0.52,0.75-0.8,1.1c-1.11,1.41-2.33,2.74-3.75,3.88c-0.71,0.57-1.47,1.09-2.33,1.49C5.46,22.1,4.46,22.4,3.4,22.19
		c-0.26-0.06-0.52-0.14-0.76-0.26c-0.19-0.07-0.61-0.36-0.73-0.66c-0.29-0.59-0.28-1.09-0.27-1.58c0.05-0.97,0.3-1.87,0.65-2.75
		c0.77-1.73,1.92-3.15,3.23-4.39c0.66-0.62,1.35-1.19,2.09-1.71c0.76-0.5,1.47-1.03,2.45-1.3c0.14-0.02,0.27-0.06,0.49,0
		c0.11,0.03,0.24,0.11,0.32,0.26c0.06,0.13,0.07,0.27,0.05,0.36c-0.1,0.38-0.29,0.52-0.45,0.71c-0.34,0.34-0.71,0.6-1.09,0.86
		c-0.75,0.5-1.54,0.92-2.35,1.3c-0.81,0.38-1.65,0.7-2.52,0.95c-0.87,0.23-1.78,0.44-2.77,0.3c-0.48-0.07-1.04-0.3-1.37-0.79
		C0.02,12.99,0,12.46,0,11.98c0.04-0.99,0.42-1.88,0.88-2.68C1.86,7.72,3.19,6.46,4.6,5.36C7.46,3.18,10.62,1.48,13.84,0L14.4,1.28z
		"/>
</g>
</svg>
