<?xml version="1.0" encoding="utf-8"?>
<!-- Generator: Adobe Illustrator 24.0.2, SVG Export Plug-In . SVG Version: 6.00 Build 0)  -->
<svg version="1.1" id="圖層_1" xmlns="http://www.w3.org/2000/svg" xmlns:xlink="http://www.w3.org/1999/xlink" x="0px" y="0px"
	 viewBox="0 0 160 160" style="enable-background:new 0 0 160 160;" xml:space="preserve">
<style type="text/css">
	.st0{fill:#F3F3F3;}
	.st1{fill:#1E2020;}
	.st2{fill:#FFFFFF;}
	.st3{fill:#1E1F1F;}
	.st4{fill:#D2B44F;}
</style>
<g>
	<g>
		<rect x="15.1" y="44.3" class="st0" width="117.6" height="71.4"/>
		<path class="st1" d="M131.8,45.3v69.4H16.2V45.3H131.8 M133.9,43.2H14.1v73.5h119.8V43.2L133.9,43.2z"/>
	</g>
	<rect x="14.1" y="43.2" class="st1" width="119.7" height="24.3"/>
	<g>
		<polygon class="st0" points="63.4,61.8 43.7,61.8 48,49 67.6,49 		"/>
		<polygon class="st0" points="89.7,61.8 69.9,61.8 74.2,49 93.8,49 		"/>
		<polygon class="st0" points="115.9,61.8 96.3,61.8 100.4,49 119.9,49 		"/>
	</g>
	<rect x="13" y="18.3" transform="matrix(0.9927 -0.1205 0.1205 0.9927 -3.1326 8.9919)" class="st1" width="119.7" height="24.3"/>
	<g>
		<polygon class="st0" points="99.8,33.5 119.3,31.2 113.6,19 94.2,21.5 		"/>
		<polygon class="st0" points="73.8,36.7 93.3,34.3 87.6,22.2 68.2,24.6 		"/>
		<polygon class="st0" points="47.8,39.9 67.2,37.5 61.6,25.4 42.1,27.8 		"/>
	</g>
	<circle class="st2" cx="28.4" cy="43.2" r="5.8"/>
	<path class="st3" d="M54.3,83.2l8.4,2c1.3,0.4,1.3,2.4,0,2.5l-8.4,2c-0.6,0.2-0.8,0.6-0.9,0.9l-2.1,8.4c-0.4,1.3-2.4,1.3-2.5,0
		l-2-8.4c-0.2-0.6-0.6-0.8-0.9-0.9l-8.4-2c-1.3-0.4-1.3-2.4,0-2.5l8.4-2c0.6-0.2,0.8-0.6,0.9-0.9l2-8.4c0.4-1.3,2.4-1.3,2.5,0l2,8.4
		C53.4,82.6,53.8,83,54.3,83.2z"/>
	<path class="st4" d="M147,75.1l5.1,1.1c0.8,0.2,0.8,1.4,0,1.5L147,79c-0.3,0.1-0.5,0.3-0.6,0.6l-1.1,5.1c-0.2,0.8-1.4,0.8-1.5,0
		l-1.1-5.1c-0.1-0.3-0.3-0.5-0.6-0.6l-5.1-1.1c-0.8-0.2-0.8-1.4,0-1.5l5.1-1.1c0.3-0.1,0.5-0.3,0.6-0.6l1.1-5.1
		c0.2-0.8,1.4-0.8,1.5,0l1.1,5.1C146.3,74.9,146.7,75,147,75.1z"/>
	<path class="st4" d="M33.3,100.2l5.1,1.1c0.8,0.2,0.8,1.4,0,1.5l-5.1,1.1c-0.3,0.1-0.5,0.3-0.6,0.6l-1.1,5.1
		c-0.2,0.8-1.4,0.8-1.5,0l-1.1-5.1c-0.1-0.3-0.3-0.5-0.6-0.6l-5.1-1.1c-0.8-0.2-0.8-1.4,0-1.5l5.1-1.1c0.3-0.1,0.5-0.3,0.6-0.6
		l1.1-5.1c0.2-0.8,1.4-0.8,1.5,0l1.1,5.1C32.7,100,33,100.1,33.3,100.2z"/>
</g>
<circle class="st1" cx="128" cy="120.6" r="28.3"/>
<polygon class="st0" points="145.3,120.6 119.2,102.2 119.2,138.9 "/>
</svg>
