<?xml version="1.0" encoding="utf-8"?>
<!-- Generator: Adobe Illustrator 24.0.2, SVG Export Plug-In . SVG Version: 6.00 Build 0)  -->
<svg version="1.1" id="圖層_1" xmlns="http://www.w3.org/2000/svg" xmlns:xlink="http://www.w3.org/1999/xlink" x="0px" y="0px"
	 viewBox="0 0 160 160" style="enable-background:new 0 0 160 160;" xml:space="preserve">
<style type="text/css">
	.st0{fill:#1E2020;}
	.st1{fill:#D3B650;}
	.st2{fill:#F3F3F3;}
	.st3{fill:none;stroke:#1E2020;stroke-width:2;stroke-miterlimit:10;}
	.st4{fill:#F3F3F3;stroke:#1E2020;stroke-width:2;stroke-miterlimit:10;}
</style>
<path class="st0" d="M140.5,76.7l8.1,1.9c1.3,0.4,1.3,2.3,0,2.4l-8.1,1.9c-0.6,0.2-0.8,0.6-0.9,0.9l-1.9,8.1c-0.4,1.3-2.3,1.3-2.4,0
	l-1.9-8.1c-0.2-0.6-0.6-0.8-0.9-0.9l-8.1-1.9c-1.3-0.4-1.3-2.3,0-2.4l8.1-1.9c0.6-0.2,0.8-0.6,0.9-0.9l1.9-8.1
	c0.4-1.3,2.3-1.3,2.4,0l1.9,8.1C139.8,76.1,140.1,76.5,140.5,76.7z"/>
<path class="st1" d="M152.8,97.9l4.9,1.1c0.8,0.2,0.8,1.4,0,1.5l-4.9,1.1c-0.3,0.1-0.5,0.3-0.6,0.6l-1.1,4.9c-0.2,0.8-1.4,0.8-1.5,0
	l-1.1-4.9c-0.1-0.3-0.3-0.5-0.6-0.6l-4.9-1.1c-0.8-0.2-0.8-1.4,0-1.5l4.9-1.1c0.3-0.1,0.5-0.3,0.6-0.6l1.1-4.9
	c0.2-0.8,1.4-0.8,1.5,0l1.1,4.9C152.2,97.7,152.4,97.8,152.8,97.9z"/>
<path class="st1" d="M33.1,81l4.9,1.1c0.8,0.2,0.8,1.4,0,1.5l-4.9,1.1c-0.3,0.1-0.5,0.3-0.6,0.6l-1.1,4.9c-0.2,0.8-1.4,0.8-1.5,0
	l-1.1-4.9c-0.1-0.3-0.3-0.5-0.6-0.6l-4.9-1.1c-0.8-0.2-0.8-1.4,0-1.5l4.9-1.1c0.3-0.1,0.5-0.3,0.6-0.6l1.1-4.9
	c0.2-0.8,1.4-0.8,1.5,0l1.1,4.9C32.6,80.7,32.8,80.8,33.1,81z"/>
<path class="st0" d="M112.1,135.3H49.8c-3.1,0-5.7-2.5-5.7-5.7V23.5c0-3.1,2.5-5.7,5.7-5.7h62.2c3.1,0,5.7,2.5,5.7,5.7v106.1
	C117.8,132.8,115.2,135.3,112.1,135.3z"/>
<path class="st2" d="M107.7,117.2H54.2c-1.9,0-3.4-1.5-3.4-3.4V27.2c0-1.9,1.5-3.4,3.4-3.4h53.4c1.9,0,3.4,1.5,3.4,3.4v86.6
	C111.1,115.7,109.5,117.2,107.7,117.2z"/>
<rect x="57.6" y="33.3" class="st3" width="46.4" height="33.4"/>
<line class="st3" x1="57.6" y1="77.8" x2="104" y2="77.8"/>
<line class="st3" x1="57.6" y1="87.2" x2="91" y2="87.2"/>
<line class="st3" x1="57.6" y1="33.3" x2="103.5" y2="66.2"/>
<circle class="st2" cx="81" cy="126.3" r="3.3"/>
<g>
	<rect x="1.8" y="101.5" class="st4" width="58.6" height="40.7"/>
	<line class="st3" x1="11.3" y1="111.4" x2="50.9" y2="111.4"/>
	<line class="st3" x1="11.3" y1="120" x2="43" y2="120"/>
	<line class="st3" x1="11.3" y1="128.5" x2="50.9" y2="128.5"/>
</g>
<g>
	<g>
		<path class="st2" d="M141.5,46.2c-7.1,0-12.9-5.8-12.9-12.9s5.8-12.9,12.9-12.9c7.1,0,12.9,5.8,12.9,12.9S148.6,46.2,141.5,46.2z"
			/>
		<g>
			<path class="st0" d="M141.5,21.3c6.6,0,11.9,5.4,11.9,11.9c0,6.6-5.4,11.9-11.9,11.9s-11.9-5.4-11.9-11.9
				C129.6,26.7,134.9,21.3,141.5,21.3 M141.5,19.3c-7.7,0-13.9,6.2-13.9,13.9c0,7.7,6.2,13.9,13.9,13.9s13.9-6.2,13.9-13.9
				C155.4,25.6,149.2,19.3,141.5,19.3L141.5,19.3z"/>
		</g>
	</g>
	<circle class="st0" cx="141.5" cy="29.3" r="4.6"/>
	<path class="st0" d="M141.5,34.9c-4.5,0-8.2,3.7-8.2,8.2c0,0.5,0.1,1,0.1,1.5c2.3,1.6,5.1,2.6,8.1,2.6c3,0,5.8-1,8.1-2.6
		c0.1-0.5,0.1-1,0.1-1.5C149.7,38.6,146,34.9,141.5,34.9z"/>
</g>
<rect x="9" y="36.7" class="st4" width="27.1" height="20.3"/>
<line class="st3" x1="13.9" y1="44" x2="30.1" y2="44"/>
<line class="st3" x1="13.9" y1="50.2" x2="26.9" y2="50.2"/>
</svg>
