<?xml version="1.0" encoding="utf-8"?>
<!-- Generator: Adobe Illustrator 24.0.2, SVG Export Plug-In . SVG Version: 6.00 Build 0)  -->
<svg version="1.1" id="圖層_1" xmlns="http://www.w3.org/2000/svg" xmlns:xlink="http://www.w3.org/1999/xlink" x="0px" y="0px"
	 viewBox="0 0 160 160" style="enable-background:new 0 0 160 160;" xml:space="preserve">
<style type="text/css">
	.st0{fill:#1E2020;}
	.st1{fill:#F3F3F3;}
	.st2{fill:#1E1F1F;}
	.st3{fill:#D2B44F;}
	.st4{fill:none;stroke:#1E2020;stroke-width:2;stroke-miterlimit:10;}
	.st5{fill:#DABB4E;}
</style>
<path class="st0" d="M142.4,37.3v-8.6c0-5.8-4.7-10.4-10.4-10.4H12.5C6.8,18.3,2,23,2,28.7v8.6H142.4z"/>
<g>
	<path class="st1" d="M11.4,113c-4.7,0-8.4-3.7-8.4-8.4V38.3h138.5v66.1c0,4.8-3.6,8.6-8.3,8.6H11.4z"/>
	<path class="st0" d="M140.5,39.3v65.1c0,4.3-3.2,7.6-7.3,7.6H11.4c-4.2,0-7.4-3.2-7.4-7.4V39.3H140.5 M142.4,37.3H2v67.3
		c0,5.3,4.2,9.4,9.4,9.4h121.8c5.2,0,9.3-4.2,9.3-9.6V37.3L142.4,37.3z"/>
</g>
<circle class="st1" cx="16.8" cy="28.7" r="3.7"/>
<circle class="st1" cx="26.9" cy="28.7" r="3.7"/>
<circle class="st1" cx="37" cy="28.7" r="3.7"/>
<g>
	<g>
		<path class="st0" d="M93.5,126.7c-2.9,0-5.3-2.3-5.3-5.3s2.3-5.3,5.3-5.3c2.9,0,5.3,2.3,5.3,5.3S96.4,126.7,93.5,126.7z"/>
		<path class="st1" d="M93.5,117.1c2.3,0,4.3,2,4.3,4.3s-2,4.3-4.3,4.3c-2.3,0-4.3-2-4.3-4.3S91.2,117.1,93.5,117.1 M93.5,115.2
			c-3.4,0-6.2,2.8-6.2,6.2s2.8,6.2,6.2,6.2c3.4,0,6.2-2.8,6.2-6.2S96.9,115.2,93.5,115.2L93.5,115.2z"/>
	</g>
	<g>
		<path class="st0" d="M110.2,126.7c-2.9,0-5.3-2.3-5.3-5.3s2.3-5.3,5.3-5.3s5.3,2.3,5.3,5.3S113.1,126.7,110.2,126.7z"/>
		<path class="st1" d="M110.2,117.1c2.3,0,4.3,2,4.3,4.3s-2,4.3-4.3,4.3s-4.3-2-4.3-4.3S107.9,117.1,110.2,117.1 M110.2,115.2
			c-3.4,0-6.2,2.8-6.2,6.2s2.8,6.2,6.2,6.2s6.2-2.8,6.2-6.2S113.6,115.2,110.2,115.2L110.2,115.2z"/>
	</g>
	<g>
		<path class="st0" d="M126.9,126.7c-2.9,0-5.3-2.3-5.3-5.3s2.3-5.3,5.3-5.3s5.3,2.3,5.3,5.3S129.8,126.7,126.9,126.7z"/>
		<path class="st1" d="M126.9,117.1c2.3,0,4.3,2,4.3,4.3s-2,4.3-4.3,4.3c-2.3,0-4.3-2-4.3-4.3S124.6,117.1,126.9,117.1 M126.9,115.2
			c-3.4,0-6.2,2.8-6.2,6.2s2.8,6.2,6.2,6.2c3.4,0,6.2-2.8,6.2-6.2S130.3,115.2,126.9,115.2L126.9,115.2z"/>
	</g>
	<g>
		<polygon class="st0" points="132.2,131.6 148.9,121.4 132.2,111.3 132.2,101.9 159,117.8 159,125 132.2,140.9 		"/>
		<path class="st1" d="M133.1,103.6l24.9,14.7v6.1l-24.9,14.7v-7l17.6-10.7l-17.6-10.7V103.6 M131.2,100.2v3.4v7v1.1l1,0.6l14.8,9.1
			l-14.8,9.1l-1,0.6v1.1v7v3.4l2.9-1.8l24.9-14.7l1-0.6v-1.1v-6.1v-1.1l-1-0.6L134.1,102L131.2,100.2L131.2,100.2z"/>
	</g>
	<g>
		<polygon class="st0" points="61.5,125 61.5,117.7 88.3,101.8 88.3,111.2 71.5,121.4 88.3,131.7 88.3,141 		"/>
		<path class="st1" d="M87.3,103.5v7l-17.6,10.8v0.1l17.6,10.7v7l-24.9-14.8v-6.2L87.3,103.5 M89.3,100.1l-2.9,1.8l-24.9,14.7
			l-1,0.6v1.1v6.2v1.1l1,0.6l24.9,14.8l2.9,1.8v-3.4v-7v-1.1l-1-0.6l-14.9-9.2l14.9-9.2l1-0.6v-1.1v-7V100.1L89.3,100.1z"/>
	</g>
</g>
<path class="st2" d="M44.4,108.7l5.1,1.2c0.8,0.2,0.8,1.5,0,1.6l-5.1,1.2c-0.4,0.1-0.5,0.4-0.6,0.6l-1.2,5.1c-0.2,0.8-1.5,0.8-1.6,0
	l-1.2-5.1c-0.1-0.4-0.4-0.5-0.6-0.6l-5.1-1.2c-0.8-0.2-0.8-1.5,0-1.6l5.1-1.2c0.4-0.1,0.5-0.4,0.6-0.6l1.2-5.1
	c0.2-0.8,1.5-0.8,1.6,0l1.2,5.1C43.9,108.3,44.2,108.6,44.4,108.7z"/>
<path class="st3" d="M148.5,60.5l5.9,1.4c1,0.3,1,1.7,0,1.8l-5.9,1.4c-0.4,0.1-0.6,0.4-0.7,0.7l-1.4,5.9c-0.3,1-1.7,1-1.8,0
	l-1.4-5.9c-0.1-0.4-0.4-0.6-0.7-0.7l-5.9-1.4c-1-0.3-1-1.7,0-1.8l5.9-1.4c0.4-0.1,0.6-0.4,0.7-0.7l1.4-5.9c0.3-1,1.7-1,1.8,0
	l1.4,5.9C148,60.1,148.3,60.3,148.5,60.5z"/>
<path class="st3" d="M27.7,96l6.6,1.6c1.1,0.3,1.1,1.9,0,2.1l-6.6,1.6c-0.5,0.2-0.6,0.5-0.8,0.8l-1.6,6.6c-0.3,1.1-1.9,1.1-2.1,0
	l-1.6-6.6c-0.2-0.5-0.5-0.6-0.8-0.8l-6.6-1.6c-1.1-0.3-1.1-1.9,0-2.1l6.6-1.6c0.5-0.2,0.6-0.5,0.8-0.8l1.6-6.6
	c0.3-1.1,1.9-1.1,2.1,0l1.6,6.6C26.9,95.7,27.2,95.8,27.7,96z"/>
<g>
	<line class="st4" x1="83.1" y1="51.3" x2="127.8" y2="51.3"/>
	<line class="st4" x1="83.1" y1="59.8" x2="121.2" y2="59.8"/>
	<line class="st4" x1="83.1" y1="68.4" x2="124.4" y2="68.4"/>
	<line class="st4" x1="83.1" y1="76.9" x2="117.5" y2="76.9"/>
</g>
<g>
	<path class="st0" d="M16.1,77.8c0.9-2.1,4.6-1.8,6-3.7c1.1,0,5.8-3.4,6.5-3.4s1.5-0.9,2.2-1c0.8,0,0.8,0,1.5-0.3
		c0.5,1,1.8,0.1,2.5,1c0.1,0.1,2.1-0.8,2.2-0.8c0.5,0.1,2.2-0.6,2.7-0.8c0.9-0.3,1.9,0.1,2.6,0.5c1.5,0.9,11.5,7.6,12.3,8.5
		L16.1,77.8z"/>
	<path class="st5" d="M34.7,77.8c2.8-2.2,5.6-4.4,8.4-6.6c0.3-0.2,0.7-0.5,1-0.7c0.3-0.1,0.6-0.2,0.9-0.3c0.8-0.2,1.6-0.4,2.4-0.6
		c0.3-0.1,0.6-0.1,0.9-0.2c0.9-0.3,1.6-1,2.3-1.6c3.2-2.6,7-4.3,10.8-5.9c0.3-0.1,0.7-0.2,0.9,0c0.1,0.1,0.1,0.2,0.2,0.3
		c0.3,0.4,0.8,0.2,1.3,0.1c1.4-0.4,2.8-0.5,4.2-0.2c0,1,0.8,1.8,1.5,2.4c0.2,0.2,0.4,0.4,0.6,0.6c0.2,0.2,0.4,0.4,0.6,0.5
		c0.1,0.1,0.3,0.1,0.5,0.3c0.1,0.1,0.3,0.3,0.4,0.5c1.2,2.1,2.2,4,3.4,6.1c0.3,0.6,0.7,1.1,0.8,1.8c0.2,0.8,0.2,1.6,0.1,2.3
		c0,0.6-0.1,1.3-0.6,1.5L34.7,77.8z"/>
</g>
<rect x="15.4" y="49.5" class="st4" width="61" height="29.1"/>
</svg>
