<?xml version="1.0" encoding="utf-8"?>
<!-- Generator: Adobe Illustrator 24.0.2, SVG Export Plug-In . SVG Version: 6.00 Build 0)  -->
<svg version="1.1" id="圖層_1" xmlns="http://www.w3.org/2000/svg" xmlns:xlink="http://www.w3.org/1999/xlink" x="0px" y="0px"
	 viewBox="0 0 160 160" style="enable-background:new 0 0 160 160;" xml:space="preserve">
<style type="text/css">
	.st0{fill:#F3F3F3;}
	.st1{fill:#1E2020;}
	.st2{fill:none;stroke:#1E1F1F;stroke-width:2;stroke-miterlimit:10;}
	.st3{fill:none;stroke:#1E1F1F;stroke-width:10;stroke-miterlimit:10;}
	.st4{clip-path:url(#SVGID_4_);fill:#D3B650;}
	.st5{fill:#1E1F1F;}
	.st6{fill:#D2B44F;}
</style>
<g>
	<path class="st0" d="M81.6,96.2c-13.4,0-24.3-10.9-24.3-24.3s10.9-24.3,24.3-24.3c13.4,0,24.3,10.9,24.3,24.3S95,96.2,81.6,96.2z"
		/>
	<path class="st1" d="M81.6,48.7c12.9,0,23.3,10.4,23.3,23.3S94.5,95.2,81.6,95.2S58.3,84.8,58.3,71.9S68.8,48.7,81.6,48.7
		 M81.6,46.7c-13.9,0-25.3,11.3-25.3,25.3s11.3,25.3,25.3,25.3s25.3-11.3,25.3-25.3S95.6,46.7,81.6,46.7L81.6,46.7z"/>
</g>
<path class="st2" d="M128.4,90.9c-12.2,8.8-28.7,17.4-46.9,17.4"/>
<path class="st3" d="M81.5,108.4c-7,0-15.4-2-15.4-2c-30-7.6-52.3-34.4-52.3-34.4s30.3-36.3,67.7-36.3s67.5,36.3,67.5,36.3"/>
<g>
	
		<rect x="129.3" y="125.3" transform="matrix(0.9824 -0.1866 0.1866 0.9824 -21.7241 28.3501)" class="st1" width="20.8" height="8.6"/>
	<path class="st1" d="M136.4,83.5l-3.8,0.7l3.8,20.3c0.8,0.3,1.6,1.1,1.8,2.1c0.3,1.5-0.7,3-2.2,3.4c-1.5,0.3-3-0.7-3.4-2.2
		c-0.2-1,0.2-2,0.9-2.7l-3.7-20.2l-3.7,0.7c2,10.4-4.5,26.2-4.5,26.2l6.1,9.9l20.4-3.8l2.1-11.5C150.1,106.3,138.3,93.9,136.4,83.5z
		"/>
</g>
<g>
	<g>
		<g>
			<defs>
				<circle id="SVGID_1_" cx="81.6" cy="71.9" r="23.3"/>
			</defs>
			<clipPath id="SVGID_2_">
				<use xlink:href="#SVGID_1_"  style="overflow:visible;"/>
			</clipPath>
		</g>
	</g>
	<g>
		<g>
			<defs>
				<circle id="SVGID_3_" cx="81.6" cy="71.9" r="23.3"/>
			</defs>
			<clipPath id="SVGID_4_">
				<use xlink:href="#SVGID_3_"  style="overflow:visible;"/>
			</clipPath>
			<path class="st4" d="M136,82.7c-4.2,0.9-8.3,1.8-12.5,1.5c-2.2-0.2-4.4-0.7-6.5-1c-4.7-0.9-9.4-1.3-14.2-1.2
				c-6,0-12.1,0.8-17.9-0.7c-5.1-1.2-9.7-4.1-14.7-5.7c-6.7-2.2-14-2.1-21-3.6h-3.6v30.2h21h69.6L136,82.7L136,82.7z"/>
		</g>
	</g>
</g>
<path class="st5" d="M81.9,59.7l6.1,1.4c1,0.3,1,1.7,0,1.9l-6.1,1.4c-0.4,0.1-0.6,0.4-0.7,0.7l-1.4,6.1c-0.3,1-1.7,1-1.9,0l-1.4-6.1
	c-0.1-0.4-0.4-0.6-0.7-0.7l-6.1-1.4c-1-0.3-1-1.7,0-1.9l6.1-1.4c0.4-0.1,0.6-0.4,0.7-0.7l1.4-6.1c0.3-1,1.7-1,1.9,0l1.4,6.1
	C81.3,59.2,81.6,59.5,81.9,59.7z"/>
<path class="st5" d="M45.5,20.3l6.1,1.4c1,0.3,1,1.7,0,1.9L45.5,25c-0.4,0.1-0.6,0.4-0.7,0.7l-1.4,6.1c-0.3,1-1.7,1-1.9,0l-1.4-6.1
	c-0.1-0.4-0.4-0.6-0.7-0.7l-6.1-1.4c-1-0.3-1-1.7,0-1.9l6.1-1.4c0.4-0.1,0.6-0.4,0.7-0.7l1.4-6.1c0.3-1,1.7-1,1.9,0l1.4,6.1
	C45,19.8,45.3,20.1,45.5,20.3z"/>
<path class="st6" d="M28.5,33.8l4.9,1.1c0.8,0.2,0.8,1.4,0,1.5l-4.9,1.1c-0.3,0.1-0.5,0.3-0.6,0.6l-1.1,4.9c-0.2,0.8-1.4,0.8-1.5,0
	l-1.1-4.9c-0.1-0.3-0.3-0.5-0.6-0.6l-4.9-1.1c-0.8-0.2-0.8-1.4,0-1.5l4.9-1.1c0.3-0.1,0.5-0.3,0.6-0.6l1.1-4.9
	c0.2-0.8,1.4-0.8,1.5,0l1.1,4.9C28,33.6,28.2,33.7,28.5,33.8z"/>
<path class="st6" d="M95.9,70.1l4.9,1.1c0.8,0.2,0.8,1.4,0,1.5l-4.9,1.1c-0.3,0.1-0.5,0.3-0.6,0.6l-1.1,4.9c-0.2,0.8-1.4,0.8-1.5,0
	l-1.1-4.9c-0.1-0.3-0.3-0.5-0.6-0.6l-4.9-1.1c-0.8-0.2-0.8-1.4,0-1.5l4.9-1.1c0.3-0.1,0.5-0.3,0.6-0.6l1.1-4.9
	c0.2-0.8,1.4-0.8,1.5,0l1.1,4.9C95.3,69.9,95.6,70,95.9,70.1z"/>
</svg>
